<?xml version="1.0" encoding="UTF-8"?>
<svg id="Layer_3_copy" xmlns="http://www.w3.org/2000/svg" version="1.1" viewBox="0 0 404.9 225.07">
  <!-- Generator: Adobe Illustrator 29.8.1, SVG Export Plug-In . SVG Version: 2.1.1 Build 2)  -->
  <defs>
    <style>
      .st0 {
        fill: #231f20;
      }
    </style>
  </defs>
  <g>
    <path class="st0" d="M130.19,225.07v-85.49h-25.28v-39.83h25.28v-21.06C126.46,27.25,160.64,1,196.56,1c37.94,0,70.34,30.56,67.35,77.67h-32.34l-32.63-50.4v43.93c3.2.87,5.55,3.84,5.55,7.4,0,4.22-3.35,7.64-7.49,7.64s-7.46-3.42-7.46-7.64c0-3.55,2.35-6.53,5.55-7.4V28.36l-32.76,49.62c8.44,9.75,13.28,15.3,16.01,21.77,3.49,8.24,3.55,17.97,3.35,39.83-.07,6.62.22,76.34.2,85.49h-51.71Z"/>
    <polygon class="st0" points="263.9 78.7 263.9 78.7 231.56 78.7 231.56 78.7 263.9 78.7"/>
  </g>
  <polygon class="st0" points="263.9 78.7 263.9 78.7 231.56 78.7 231.56 78.7 263.9 78.7"/>
  <path class="st0" d="M263.9,99.75v39.83h-51.73v-10.08c0-15.06.58-22.83,3.69-29.72h48.04v-.02Z"/>
</svg>