<?xml version="1.0" encoding="UTF-8"?>
<svg id="Layer_3_copy_3" xmlns="http://www.w3.org/2000/svg" version="1.1" viewBox="0 0 352.42 172.09">
  <!-- Generator: Adobe Illustrator 29.8.1, SVG Export Plug-In . SVG Version: 2.1.1 Build 2)  -->
  <defs>
    <style>
      .st0, .st1, .st2 {
        fill: #231f20;
      }

      .st3 {
        fill: none;
      }

      .st3, .st1, .st2 {
        stroke: #231f20;
      }

      .st3, .st2 {
        stroke-miterlimit: 10;
      }

      .st1 {
        stroke-miterlimit: 10;
        stroke-width: 1px;
      }
    </style>
  </defs>
  <g>
    <g>
      <path class="st0" d="M85.24,93.06h-17.34l-17.49-27.02v23.56c1.71.46,2.97,2.06,2.97,3.97,0,2.26-1.79,4.1-4,4.1s-4.01-1.83-4.01-4.1c0-1.91,1.26-3.5,2.98-3.97v-23.51l-17.57,26.6c4.53,5.23,7.12,8.19,8.59,11.66,1.25,2.97,1.68,6.28,1.8,11.66v11.83c0,8.84.12,39.31.11,43.71H13.55v-45.84H0v-21.35h13.55v-11.29c-2-27.58,16.33-41.66,35.58-41.66,20.34,0,37.72,16.39,36.11,41.66h0Z"/>
      <path class="st0" d="M85.24,93.05h-17.33,17.34-.01Z"/>
    </g>
    <path class="st0" d="M85.24,93.05h-17.33,17.34-.01Z"/>
    <path class="st0" d="M85.24,104.35v21.35h-27.73v-5.41c0-8.07.32-12.24,1.97-15.94h25.76Z"/>
  </g>
  <path class="st2" d="M128.17,82.36h16.38v46.17h-16.38v-5.13c-3.48,4.38-8.19,6.57-14.13,6.57-3.36,0-6.45-.62-9.27-1.84-2.82-1.23-5.28-2.95-7.38-5.18-2.1-2.22-3.73-4.83-4.9-7.83s-1.76-6.27-1.76-9.81c0-3.3.57-6.43,1.71-9.4,1.14-2.97,2.73-5.56,4.77-7.79,2.04-2.22,4.47-3.97,7.29-5.26s5.94-1.94,9.36-1.94c5.76,0,10.53,2.01,14.31,6.03v-4.59ZM107.65,105.31c0,1.5.27,2.9.81,4.19.54,1.29,1.27,2.42,2.21,3.38.93.96,2.04,1.71,3.33,2.25s2.68.81,4.19.81,2.8-.27,4.1-.81c1.29-.54,2.4-1.29,3.33-2.25s1.68-2.07,2.25-3.33.85-2.61.85-4.05-.29-2.8-.85-4.09c-.57-1.29-1.32-2.41-2.25-3.38-.93-.96-2.04-1.71-3.33-2.25s-2.66-.81-4.1-.81-2.9.27-4.19.81-2.4,1.29-3.33,2.25-1.67,2.06-2.21,3.28c-.54,1.23-.81,2.56-.81,4h0Z"/>
  <path class="st2" d="M172.45,95.95v32.58h-16.29v-32.58h-5.4v-13.59h5.4v-13.86h16.29v13.86h9.27v13.59h-9.27Z"/>
  <path class="st2" d="M186.66,68.63c0-1.26.24-2.44.72-3.56.48-1.11,1.14-2.08,1.98-2.92s1.81-1.5,2.92-1.98,2.29-.72,3.55-.72,2.44.24,3.56.72c1.11.48,2.08,1.14,2.92,1.98.84.84,1.5,1.82,1.98,2.92.48,1.11.72,2.29.72,3.56s-.24,2.45-.72,3.55c-.48,1.11-1.14,2.09-1.98,2.93s-1.82,1.5-2.92,1.98c-1.11.48-2.29.72-3.56.72s-2.45-.24-3.55-.72c-1.11-.48-2.09-1.14-2.92-1.98-.84-.84-1.5-1.81-1.98-2.93-.48-1.11-.72-2.29-.72-3.55ZM204.04,82.36v46.17h-16.29v-46.17h16.29,0Z"/>
  <path class="st2" d="M211.84,82.36h16.29v5.67c4.44-4.26,9.42-6.39,14.94-6.39,6.84,0,12.06,2.88,15.66,8.64,3.66-5.82,8.88-8.73,15.66-8.73,2.16,0,4.2.31,6.12.94,1.92.63,3.57,1.62,4.95,2.97s2.47,3.1,3.29,5.27c.81,2.16,1.21,4.77,1.21,7.83v29.97h-16.29v-22.77c0-2.34-.17-4.26-.5-5.76s-.81-2.67-1.44-3.51c-.63-.84-1.37-1.41-2.21-1.71-.84-.3-1.74-.45-2.7-.45-5.22,0-7.83,3.81-7.83,11.43v22.77h-16.29v-22.77c0-2.34-.15-4.27-.45-5.81-.3-1.53-.74-2.74-1.3-3.65-.57-.9-1.31-1.51-2.21-1.84-.9-.33-1.95-.5-3.15-.5-1.02,0-1.98.15-2.88.45-.9.3-1.7.89-2.38,1.75-.69.87-1.23,2.07-1.62,3.6s-.58,3.53-.58,5.98v22.77h-16.29v-46.17.02Z"/>
  <path class="st2" d="M332.71,82.36h16.38v46.17h-16.38v-5.13c-3.48,4.38-8.19,6.57-14.13,6.57-3.36,0-6.45-.62-9.27-1.84-2.82-1.23-5.28-2.95-7.38-5.18-2.1-2.22-3.74-4.83-4.91-7.83s-1.75-6.27-1.75-9.81c0-3.3.57-6.43,1.71-9.4,1.14-2.97,2.73-5.56,4.77-7.79,2.04-2.22,4.47-3.97,7.29-5.26s5.94-1.94,9.36-1.94c5.76,0,10.53,2.01,14.31,6.03v-4.59h0ZM312.19,105.31c0,1.5.27,2.9.81,4.19.54,1.29,1.27,2.42,2.21,3.38.93.96,2.04,1.71,3.33,2.25,1.29.54,2.68.81,4.19.81s2.8-.27,4.09-.81,2.4-1.29,3.33-2.25,1.68-2.07,2.25-3.33.85-2.61.85-4.05-.29-2.8-.85-4.09c-.57-1.29-1.32-2.41-2.25-3.38-.93-.96-2.04-1.71-3.33-2.25-1.29-.54-2.66-.81-4.09-.81s-2.9.27-4.19.81-2.4,1.29-3.33,2.25-1.67,2.06-2.21,3.28c-.54,1.23-.81,2.56-.81,4h0Z"/>
  <path class="st3" d="M49.77,64.78c21.08-56.1,113.81-62.76,144.96-4.45"/>
  <g>
    <path class="st2" d="M79.57,149.51c-.46-1.19-1.11-2.23-1.94-3.1-.83-.88-1.81-1.58-2.94-2.09-1.13-.51-2.35-.77-3.66-.77-2.37,0-4.25.87-5.63,2.61v-2.04h-6.45v27.42h6.45v-10.91c1.52,1.57,3.42,2.35,5.71,2.35,1.3,0,2.51-.25,3.63-.75s2.09-1.19,2.91-2.07c.82-.87,1.46-1.9,1.92-3.06.46-1.17.7-2.43.7-3.78s-.24-2.62-.7-3.81ZM73.19,154.89c-.23.5-.52.94-.89,1.32s-.8.68-1.3.89-1.04.32-1.61.32-1.11-.11-1.62-.34c-.51-.22-.95-.52-1.33-.89-.38-.37-.68-.8-.9-1.3-.21-.5-.32-1.03-.32-1.61s.12-1.11.34-1.62c.23-.51.53-.95.89-1.33.37-.38.81-.68,1.3-.89.5-.22,1.04-.33,1.61-.33s1.15.12,1.66.34c.51.23.95.53,1.33.91s.67.83.88,1.34c.2.51.3,1.05.3,1.62s-.11,1.07-.34,1.57h0Z"/>
    <path class="st2" d="M102.76,153.68c0-1.59-.23-3.03-.68-4.3s-1.1-2.34-1.96-3.22-1.9-1.55-3.14-2.02c-1.23-.46-2.62-.69-4.17-.69s-2.97.23-4.22.69c-1.25.47-2.31,1.12-3.19,1.98-.88.86-1.56,1.9-2.03,3.12-.48,1.22-.72,2.6-.72,4.12s.25,2.8.75,3.99,1.21,2.21,2.12,3.06c.92.86,2.02,1.52,3.3,1.98,1.28.47,2.7.7,4.24.7,5.04,0,8.19-2.09,9.45-6.28h-6.24c-.71,1.14-1.77,1.71-3.17,1.71-2.62,0-3.92-1.39-3.92-4.17h13.58v-.67h0ZM89.36,150.61c.16-.95.56-1.69,1.19-2.21.63-.52,1.44-.78,2.44-.78s1.76.27,2.43.82c.66.54,1.1,1.27,1.31,2.17h-7.37Z"/>
    <path class="st2" d="M124.86,148.19c-.19-.76-.55-1.45-1.07-2.07-.64-.76-1.42-1.35-2.34-1.76-.91-.42-2.01-.63-3.29-.63s-2.27.19-3.18.55c-.9.37-1.79,1.09-2.67,2.16v-2.32h-6.45v18.29h6.45v-9.77c0-1.21.29-2.14.87-2.79.59-.66,1.42-.98,2.52-.98.4,0,.78.05,1.14.17.35.12.67.32.96.61.33.33.56.78.69,1.34.14.55.2,1.28.2,2.19v9.23h6.45v-11.62c0-.97-.09-1.84-.28-2.6h0Z"/>
    <path class="st2" d="M136.23,150.13c.4-.39.87-.69,1.41-.91.53-.21,1.11-.32,1.72-.32,1.15,0,2.27.38,3.39,1.14v-5.49c-1.33-.66-2.78-1-4.35-1-1.42,0-2.76.25-4.01.73-1.25.49-2.32,1.17-3.22,2.04-.91.86-1.62,1.9-2.14,3.1-.53,1.2-.79,2.52-.79,3.97s.28,2.76.82,3.94c.55,1.18,1.28,2.19,2.2,3.03.91.84,1.97,1.49,3.17,1.94s2.46.68,3.79.68c1.43,0,2.94-.34,4.53-1.03v-5.49c-1.04.83-2.17,1.24-3.39,1.24-.61,0-1.2-.1-1.74-.32-.55-.21-1.02-.51-1.41-.9-.39-.4-.7-.86-.93-1.39-.22-.54-.34-1.13-.34-1.77s.12-1.26.34-1.8c.23-.53.54-1,.95-1.39h0Z"/>
    <path class="st2" d="M145.85,144.12v18.29h6.45v-18.29h-6.45ZM152.41,135.69c-.19-.44-.45-.82-.78-1.15-.34-.34-.72-.6-1.16-.79s-.91-.28-1.41-.28-.97.09-1.41.28-.82.45-1.16.79-.59.71-.78,1.15-.29.91-.29,1.41.1.97.29,1.41c.19.44.45.83.78,1.16.34.33.72.59,1.16.78s.91.29,1.41.29.97-.1,1.41-.29.82-.45,1.16-.78c.33-.33.59-.72.78-1.16s.29-.91.29-1.41-.1-.97-.29-1.41Z"/>
    <path class="st2" d="M156.15,132.82v29.59h6.45v-29.59h-6.45Z"/>
    <path class="st2" d="M180,152.7c-.88-.92-2.21-1.55-3.99-1.91-.64-.14-1.16-.26-1.55-.36-.4-.09-.69-.2-.89-.32-.21-.12-.34-.24-.4-.37s-.09-.3-.09-.52c0-.4.19-.72.56-.96.36-.24.85-.36,1.44-.36,1.14,0,2.3.31,3.49.93l2.18-4.21c-1.9-.78-3.86-1.17-5.88-1.17-1.24,0-2.36.15-3.37.46-1.01.31-1.87.75-2.59,1.32-.71.57-1.26,1.26-1.64,2.08s-.57,1.75-.57,2.77c0,1.4.4,2.5,1.2,3.29.79.8,2.19,1.4,4.19,1.8.59.12,1.07.24,1.44.34.37.11.65.23.84.36s.31.27.37.43c.06.15.09.35.09.59,0,.4-.19.73-.57.99-.38.26-.87.4-1.46.4-1.62,0-3.33-.62-5.13-1.86l-2.36,4.56c2.4,1.41,4.84,2.11,7.31,2.11,1.28,0,2.46-.16,3.53-.48s1.98-.78,2.74-1.36c.76-.58,1.36-1.3,1.79-2.15.42-.86.64-1.82.64-2.89,0-1.43-.44-2.6-1.32-3.51h0Z"/>
    <path class="st2" d="M215.82,156.03l.53-.5c.67-.62,1.25-1.21,1.77-1.76.51-.56.96-1.11,1.37-1.66l-3.96-3.82c-.9,1.22-2.07,2.5-3.49,3.85l-3.39-3.56c.93-.48,1.71-.94,2.34-1.41.63-.46,1.14-.95,1.53-1.46s.67-1.06.84-1.64c.16-.58.25-1.23.25-1.94,0-1.05-.21-2.02-.63-2.91-.41-.89-.99-1.67-1.74-2.33-.75-.67-1.64-1.18-2.66-1.55-1.02-.37-2.14-.55-3.35-.55s-2.29.18-3.31.55c-1.03.37-1.91.88-2.66,1.53s-1.34,1.43-1.76,2.33c-.43.91-.65,1.88-.65,2.93,0,1.57.69,3.22,2.07,4.95l.46.54-.74.35c-.88.41-1.63.81-2.23,1.2-.61.39-1.16.86-1.66,1.41-.66.71-1.13,1.45-1.41,2.22-.27.78-.41,1.66-.41,2.66,0,1.12.22,2.14.64,3.08.43.94,1.03,1.76,1.79,2.44.76.69,1.66,1.23,2.71,1.61,1.04.38,2.19.57,3.45.57,2.95,0,6.03-1.07,9.24-3.21l2.35,2.46h8.7l-5.99-6.38h0ZM203.27,156.92c-.43,0-.83-.06-1.19-.2-.37-.13-.7-.3-.98-.53-.29-.23-.52-.5-.68-.82-.17-.32-.25-.67-.25-1.05,0-1.05.84-2.09,2.53-3.14l4.24,4.56c-1.26.79-2.48,1.18-3.67,1.18h0ZM205.59,145.34c-1.41-1.52-2.11-2.71-2.11-3.57,0-.64.22-1.17.65-1.6.42-.43.96-.64,1.6-.64.69,0,1.25.24,1.69.73.44.48.66,1.06.66,1.73,0,1.23-.83,2.35-2.49,3.35h0Z"/>
    <path class="st2" d="M254.6,149.51c-.47-1.19-1.12-2.23-1.95-3.1-.83-.88-1.81-1.58-2.94-2.09s-2.34-.77-3.65-.77c-2.38,0-4.26.87-5.63,2.61v-2.04h-6.46v27.42h6.46v-10.91c1.52,1.57,3.42,2.35,5.7,2.35,1.31,0,2.52-.25,3.64-.75,1.11-.5,2.08-1.19,2.9-2.07.82-.87,1.46-1.9,1.93-3.06.46-1.17.69-2.43.69-3.78s-.23-2.62-.69-3.81h0ZM248.22,154.89c-.23.5-.53.94-.9,1.32s-.8.68-1.3.89-1.03.32-1.6.32-1.11-.11-1.62-.34c-.51-.22-.96-.52-1.34-.89s-.68-.8-.89-1.3-.32-1.03-.32-1.61.11-1.11.34-1.62c.22-.51.52-.95.89-1.33s.8-.68,1.3-.89c.5-.22,1.03-.33,1.6-.33.6,0,1.15.12,1.66.34.51.23.96.53,1.34.91.38.38.67.83.87,1.34s.3,1.05.3,1.62-.11,1.07-.33,1.57h0Z"/>
    <path class="st2" d="M258.39,144.12v18.29h6.45v-18.29h-6.45ZM264.95,135.69c-.19-.44-.45-.82-.79-1.15-.33-.34-.71-.6-1.15-.79s-.91-.28-1.41-.28-.97.09-1.41.28-.82.45-1.16.79-.59.71-.78,1.15-.29.91-.29,1.41.1.97.29,1.41.45.83.78,1.16c.34.33.72.59,1.16.78s.91.29,1.41.29.97-.1,1.41-.29.82-.45,1.15-.78c.34-.33.6-.72.79-1.16s.28-.91.28-1.41-.09-.97-.28-1.41Z"/>
    <path class="st2" d="M283.77,152.5l7.59-8.38h-8.41l-3.21,3.78-3.13-3.78h-8.42l7.42,8.38-9.13,9.91h8.52l4.71-5.42,4.67,5.42h8.55l-9.16-9.91h0Z"/>
    <path class="st2" d="M312.86,153.68c0-1.59-.23-3.03-.68-4.3-.45-1.27-1.11-2.34-1.96-3.22-.86-.88-1.9-1.55-3.14-2.02-1.23-.46-2.62-.69-4.17-.69s-2.98.23-4.22.69c-1.25.47-2.31,1.12-3.19,1.98s-1.56,1.9-2.04,3.12c-.47,1.22-.71,2.6-.71,4.12s.25,2.8.75,3.99,1.21,2.21,2.12,3.06c.92.86,2.01,1.52,3.3,1.98,1.28.47,2.7.7,4.24.7,5.04,0,8.19-2.09,9.45-6.28h-6.24c-.71,1.14-1.77,1.71-3.17,1.71-2.62,0-3.93-1.39-3.93-4.17h13.59v-.67h0ZM299.45,150.61c.17-.95.57-1.69,1.2-2.21s1.44-.78,2.44-.78,1.76.27,2.42.82c.67.54,1.11,1.27,1.32,2.17h-7.38Z"/>
    <path class="st2" d="M318.59,133.93c-.9,0-1.77-.04-2.63-.13v28.61h6.45v-28.82c-1.21.23-2.48.34-3.82.34h0Z"/>
    <path class="st2" d="M339.8,152.7c-.88-.92-2.21-1.55-3.99-1.91-.64-.14-1.16-.26-1.55-.36-.39-.09-.69-.2-.89-.32-.2-.12-.33-.24-.39-.37s-.09-.3-.09-.52c0-.4.18-.72.55-.96s.85-.36,1.44-.36c1.14,0,2.31.31,3.5.93l2.17-4.21c-1.9-.78-3.86-1.17-5.88-1.17-1.24,0-2.36.15-3.37.46s-1.87.75-2.58,1.32c-.72.57-1.26,1.26-1.64,2.08s-.57,1.75-.57,2.77c0,1.4.39,2.5,1.19,3.29.8.8,2.19,1.4,4.19,1.8.59.12,1.07.24,1.44.34.37.11.65.23.84.36s.32.27.38.43c.05.15.08.35.08.59,0,.4-.19.73-.57.99-.38.26-.86.4-1.46.4-1.61,0-3.33-.62-5.13-1.86l-2.35,4.56c2.4,1.41,4.83,2.11,7.3,2.11,1.29,0,2.46-.16,3.53-.48s1.99-.78,2.75-1.36,1.35-1.3,1.78-2.15c.43-.86.64-1.82.64-2.89,0-1.43-.44-2.6-1.32-3.51h0Z"/>
    <path class="st2" d="M351.53,157.37c-.21-.51-.51-.96-.89-1.34s-.83-.68-1.34-.89c-.51-.22-1.05-.32-1.62-.32s-1.11.1-1.62.32c-.51.21-.96.51-1.34.89s-.68.83-.89,1.34c-.21.51-.32,1.05-.32,1.62s.11,1.11.32,1.62c.21.51.51.96.89,1.34.38.38.83.67,1.34.89.51.21,1.05.32,1.62.32s1.11-.11,1.62-.32c.51-.22.96-.51,1.34-.89s.68-.83.89-1.34.32-1.05.32-1.62-.11-1.11-.32-1.62Z"/>
  </g>
  <line class="st3" x1="48.91" y1="63.93" x2="70.04" y2="9.91"/>
  <line class="st3" x1="194.73" y1="60.33" x2="164.07" y2="2.8"/>
  <circle class="st1" cx="70.23" cy="9.54" r="1.63"/>
  <circle class="st1" cx="163.84" cy="2.27" r="1.63"/>
</svg>